<svg viewBox="0 0 512 512" xmlns="http://www.w3.org/2000/svg">
  <defs>
    <!-- Gradient definitions -->
    <linearGradient id="primaryGradient" x1="0%" y1="0%" x2="100%" y2="100%">
      <stop offset="0%" style="stop-color:#1e3a8a;stop-opacity:1" />
      <stop offset="100%" style="stop-color:#0f172a;stop-opacity:1" />
    </linearGradient>
    
    <linearGradient id="accentGradient" x1="0%" y1="0%" x2="100%" y2="100%">
      <stop offset="0%" style="stop-color:#06d6a0;stop-opacity:1" />
      <stop offset="100%" style="stop-color:#0891b2;stop-opacity:1" />
    </linearGradient>
    
    <!-- Subtle shadow filter -->
    <filter id="shadow" x="-20%" y="-20%" width="140%" height="140%">
      <feDropShadow dx="2" dy="4" stdDeviation="3" flood-opacity="0.2"/>
    </filter>
  </defs>
  
  <!-- Background circle with subtle depth -->
  <circle cx="256" cy="256" r="240" fill="url(#primaryGradient)" filter="url(#shadow)"/>
  
  <!-- Main monogram container -->
  <g transform="translate(256,256)">
    
    <!-- P - Left element with angle bracket inspiration -->
    <g transform="translate(-80,0)">
      <!-- P vertical line -->
      <rect x="-8" y="-80" width="16" height="160" rx="8" fill="white"/>
      <!-- P top horizontal -->
      <rect x="8" y="-80" width="60" height="16" rx="8" fill="white"/>
      <!-- P middle horizontal -->
      <rect x="8" y="-20" width="50" height="16" rx="8" fill="white"/>
      <!-- P curved connection (top right) -->
      <path d="M 68 -64 Q 85 -64 85 -47 Q 85 -30 68 -30 L 58 -30 L 58 -64 Z" fill="white"/>
    </g>
    
    <!-- A - Center element with geometric design -->
    <g transform="translate(0,10)">
      <!-- A left diagonal -->
      <rect x="-45" y="-45" width="16" height="100" rx="8" fill="url(#accentGradient)" transform="rotate(-15)"/>
      <!-- A right diagonal -->
      <rect x="29" y="-45" width="16" height="100" rx="8" fill="url(#accentGradient)" transform="rotate(15)"/>
      <!-- A crossbar -->
      <rect x="-25" y="-5" width="50" height="12" rx="6" fill="url(#accentGradient)"/>
      <!-- Subtle tech accent - cursor dot -->
      <circle cx="0" cy="-60" r="6" fill="#06d6a0"/>
    </g>
    
    <!-- O - Right element with code bracket styling -->
    <g transform="translate(80,0)">
      <!-- O main circle -->
      <circle cx="0" cy="0" r="50" stroke="white" stroke-width="16" fill="none"/>
      <!-- Inner highlight for depth -->
      <circle cx="-15" cy="-15" r="8" fill="rgba(255,255,255,0.3)"/>
      <!-- Code-style accent -->
      <rect x="35" y="-8" width="20" height="4" rx="2" fill="#06d6a0"/>
      <rect x="35" y="4" width="15" height="4" rx="2" fill="#06d6a0"/>
    </g>
    
    <!-- Subtle grid pattern overlay for frontend feel -->
    <g opacity="0.1">
      <line x1="-120" y1="-60" x2="120" y2="-60" stroke="white" stroke-width="1"/>
      <line x1="-120" y1="0" x2="120" y2="0" stroke="white" stroke-width="1"/>
      <line x1="-120" y1="60" x2="120" y2="60" stroke="white" stroke-width="1"/>
      <line x1="-60" y1="-120" x2="-60" y2="120" stroke="white" stroke-width="1"/>
      <line x1="0" y1="-120" x2="0" y2="120" stroke="white" stroke-width="1"/>
      <line x1="60" y1="-120" x2="60" y2="120" stroke="white" stroke-width="1"/>
    </g>
    
    <!-- Corner brackets for code reference -->
    <g opacity="0.6" fill="#06d6a0">
      <!-- Top left bracket -->
      <path d="M -160 -160 L -140 -160 L -140 -140 L -160 -140 Z M -150 -150 L -130 -150 L -130 -130"/>
      <!-- Bottom right bracket -->
      <path d="M 160 160 L 140 160 L 140 140 L 160 140 Z M 150 150 L 130 150 L 130 130"/>
    </g>
  </g>
</svg>